<?xml version="1.0" encoding="UTF-8" standalone="no"?>
<!-- Created with Inkscape (http://www.inkscape.org/) -->

<svg
   width="42.606228mm"
   height="41.555683mm"
   viewBox="0 0 42.606228 41.555683"
   version="1.1"
   id="svg5"
   xmlns="http://www.w3.org/2000/svg"
   xmlns:svg="http://www.w3.org/2000/svg">
  <defs
     id="defs2" />
  <g
     id="layer1"
     transform="translate(-88.287041,-52.758217)">
    <path
       d="m 109.59013,52.758217 c -11.764309,0 -21.303089,9.537402 -21.303089,21.304469 0,9.412002 6.103332,17.397733 14.568619,20.21444 1.06385,0.197061 1.45521,-0.463021 1.45521,-1.025261 0,-0.507116 -0.0207,-2.185566 -0.0289,-3.96599 -5.926942,1.288465 -7.176823,-2.513542 -7.176823,-2.513542 -0.970137,-2.462553 -2.366089,-3.117122 -2.366089,-3.117122 -1.93339,-1.322917 0.146071,-1.295358 0.146071,-1.295358 2.138714,0.150207 3.265948,2.195216 3.265948,2.195216 1.898943,3.25768 4.982983,2.315105 6.198423,1.77078 0.19154,-1.376659 0.74414,-2.316485 1.35323,-2.848406 -4.73218,-0.538811 -9.706902,-2.364711 -9.706902,-10.528211 0,-2.32475 0.832332,-4.226444 2.195211,-5.71748 -0.220485,-0.537435 -0.949465,-2.703711 0.206708,-5.638933 0,0 1.788693,-0.571886 5.859423,2.184191 1.7005,-0.471289 3.52226,-0.708311 5.333,-0.71658 1.81075,0.0083 3.63389,0.245291 5.33715,0.71658 4.06521,-2.756077 5.85252,-2.184191 5.85252,-2.184191 1.15893,2.935222 0.42995,5.101498 0.20809,5.638933 1.36701,1.491036 2.19245,3.39273 2.19245,5.71748 0,8.182791 -4.98298,9.983886 -9.72757,10.511677 0.76481,0.661458 1.44557,1.956811 1.44557,3.945321 0,2.849785 -0.0248,5.144217 -0.0248,5.845635 0,0.567754 0.38309,1.231969 1.46347,1.022506 8.45978,-2.819466 14.55622,-10.802437 14.55622,-20.211685 0,-11.767067 -9.5374,-21.304469 -21.3031,-21.304469"
       style="fill:#191714;fill-opacity:1;fill-rule:evenodd;stroke:none;stroke-width:0.264583"
       id="path964" />
  </g>
</svg>
